<?xml version="1.0" standalone="no"?>
<!DOCTYPE svg PUBLIC "-//W3C//DTD SVG 20010904//EN"
 "http://www.w3.org/TR/2001/REC-SVG-20010904/DTD/svg10.dtd">
<svg version="1.0" xmlns="http://www.w3.org/2000/svg"
 width="2160.000000pt" height="2160.000000pt" viewBox="0 0 2160.000000 2160.000000"
 preserveAspectRatio="xMidYMid meet">
<metadata>
Created by potrace 1.14, written by Peter Selinger 2001-2017
</metadata>
<g transform="translate(0.000000,2160.000000) scale(0.100000,-0.100000)"
fill="#000000" stroke="none">
<path d="M13593 18195 c0 -8 4 -12 9 -9 4 3 8 9 8 15 0 5 -4 9 -8 9 -5 0 -9
-7 -9 -15z"/>
<path d="M12890 18184 c-85 -6 -167 -10 -182 -9 -15 0 -25 -2 -22 -6 2 -4 -4
-8 -13 -8 -46 -2 -102 -9 -112 -15 -6 -4 -15 -5 -20 -1 -5 3 -12 1 -16 -5 -3
-5 -16 -10 -28 -10 -12 -1 -37 -2 -54 -2 -18 0 -33 -4 -33 -8 0 -6 -99 -32
-130 -35 -3 0 -11 -4 -18 -9 -7 -4 -19 -2 -28 5 -12 10 -15 10 -12 0 2 -9 -32
-25 -96 -47 -55 -19 -102 -32 -104 -29 -2 2 -11 -3 -19 -11 -9 -8 -22 -13 -30
-10 -8 3 -11 1 -8 -4 3 -6 -1 -10 -10 -10 -10 0 -13 5 -9 12 4 7 3 8 -5 4 -6
-4 -9 -12 -6 -17 6 -8 -8 -13 -27 -10 -5 0 -8 -4 -8 -10 0 -6 -9 -9 -20 -6
-11 3 -23 -1 -28 -8 -4 -7 -22 -20 -41 -29 -23 -13 -31 -14 -26 -4 5 7 -2 3
-14 -9 -20 -21 -28 -25 -47 -22 -4 0 -10 -4 -13 -9 -3 -6 -13 -12 -21 -14 -8
-2 -21 -9 -29 -16 -7 -7 -20 -11 -27 -8 -7 3 -16 0 -20 -6 -4 -7 -3 -8 4 -4 7
4 12 5 12 2 0 -10 -58 -35 -65 -28 -5 4 -5 2 -2 -4 7 -13 -19 -27 -33 -19 -5
3 -12 0 -16 -6 -5 -8 -3 -9 7 -4 25 15 5 -3 -33 -29 -38 -26 -53 -22 -41 11 3
10 2 14 -2 10 -5 -4 -9 -18 -10 -32 0 -18 -17 -35 -74 -74 -41 -27 -79 -47
-84 -44 -6 3 -7 1 -4 -4 4 -6 0 -16 -8 -23 -8 -7 -15 -10 -15 -6 0 3 -8 -2
-18 -11 -44 -45 -143 -114 -154 -107 -7 4 -8 3 -4 -4 7 -12 -50 -59 -66 -54
-5 1 -7 -2 -4 -7 7 -11 -59 -62 -69 -53 -5 4 -5 2 -2 -4 4 -6 -2 -19 -13 -29
-11 -10 -20 -15 -20 -12 0 3 -19 -13 -41 -36 -23 -23 -38 -35 -34 -27 4 8 -7
-2 -25 -23 -18 -21 -38 -36 -46 -33 -7 3 -11 0 -8 -7 7 -18 -131 -151 -147
-142 -8 6 -10 4 -5 -4 5 -8 -5 -27 -27 -49 -19 -20 -56 -61 -83 -90 -26 -29
-53 -51 -59 -48 -6 2 -11 -5 -11 -18 1 -12 -4 -20 -12 -18 -8 1 -11 -2 -8 -6
7 -12 -28 -44 -39 -35 -4 5 -5 2 -1 -5 10 -16 -42 -74 -57 -65 -6 3 -7 1 -4
-4 11 -17 -31 -63 -51 -57 -14 5 -15 4 -2 -5 13 -9 13 -13 -4 -28 -13 -12 -16
-13 -11 -3 5 8 4 11 0 7 -5 -4 -10 -14 -11 -22 -1 -7 -17 -32 -35 -54 -27 -35
-35 -39 -48 -28 -14 11 -15 10 -1 -7 13 -17 12 -21 -15 -43 -17 -14 -24 -22
-16 -18 8 5 -1 -12 -20 -37 -19 -25 -38 -43 -44 -40 -5 3 -7 2 -3 -3 8 -9 -22
-65 -34 -65 -4 0 -8 -5 -8 -12 0 -6 -7 -19 -15 -28 -9 -9 -33 -46 -55 -81 -21
-35 -44 -63 -50 -61 -6 1 -9 -2 -6 -7 9 -14 -46 -101 -64 -102 -9 0 -11 -2 -3
-5 14 -6 -42 -104 -58 -104 -6 0 -7 -5 -4 -10 4 -6 -7 -32 -23 -58 -16 -27
-33 -58 -36 -70 -4 -12 -12 -22 -17 -22 -5 0 -8 -3 -7 -7 3 -13 -25 -63 -34
-63 -5 0 -7 -4 -3 -9 3 -5 -2 -16 -10 -25 -9 -8 -16 -18 -15 -21 1 -21 -1 -25
-12 -19 -6 4 -8 3 -4 -4 7 -12 -13 -62 -26 -62 -5 0 -7 -4 -3 -10 3 -5 -3 -18
-13 -28 -10 -10 -16 -24 -14 -32 3 -9 -1 -11 -13 -6 -15 5 -16 4 -6 -8 9 -11
8 -17 -3 -29 -8 -8 -13 -17 -10 -19 7 -8 -37 -99 -46 -93 -4 3 -6 -5 -2 -17 3
-14 1 -19 -6 -14 -8 4 -10 2 -6 -7 3 -8 1 -18 -5 -22 -6 -3 -11 -12 -11 -20 0
-8 -13 -42 -29 -77 -16 -35 -34 -78 -41 -95 -7 -18 -16 -31 -20 -28 -5 3 -6
-5 -2 -17 3 -13 1 -19 -5 -15 -6 4 -11 1 -10 -6 1 -29 -4 -48 -10 -44 -5 3 -9
-5 -9 -18 -1 -12 -14 -47 -29 -76 -15 -30 -26 -56 -26 -59 2 -13 -22 -70 -29
-70 -5 0 -7 -7 -4 -15 4 -8 1 -15 -7 -15 -7 0 -10 -3 -6 -6 9 -9 -23 -87 -41
-101 -11 -9 -12 -13 -3 -13 7 0 9 -5 4 -12 -4 -7 -9 -21 -10 -31 -2 -10 -8
-28 -15 -40 -7 -12 -13 -27 -14 -33 -1 -6 -5 -22 -9 -34 -6 -18 -9 -20 -17 -9
-7 10 -8 8 -3 -8 7 -26 -4 -75 -15 -68 -5 3 -6 -5 -2 -17 4 -16 2 -19 -8 -13
-9 5 -11 4 -6 -4 9 -14 -3 -53 -14 -46 -5 3 -12 0 -16 -6 -4 -8 -3 -9 4 -5 7
4 12 2 12 -4 0 -21 -25 -90 -33 -90 -5 0 -6 -4 -3 -9 5 -7 -46 -174 -70 -231
-4 -8 -8 -26 -10 -40 -2 -14 -7 -26 -13 -28 -5 -2 -6 -12 -3 -24 3 -12 1 -19
-4 -16 -5 4 -10 -4 -10 -15 -2 -25 -5 -39 -34 -145 -12 -42 -24 -90 -27 -107
-3 -16 -11 -55 -19 -85 -8 -30 -14 -63 -14 -73 0 -11 -4 -15 -12 -11 -6 4 -8
3 -5 -3 3 -5 2 -32 -2 -59 -27 -151 -33 -180 -38 -194 -6 -15 -8 -29 -17 -85
-2 -16 -5 -30 -6 -30 -1 0 -3 -11 -4 -25 -8 -68 -19 -126 -26 -130 -4 -3 -6
-13 -4 -23 4 -26 -17 -157 -25 -153 -3 2 -6 -15 -7 -37 -1 -74 -7 -98 -23 -92
-11 4 -12 3 -1 -10 7 -8 10 -24 6 -37 -4 -13 -9 -48 -12 -78 -3 -30 -9 -57
-12 -60 -4 -3 -8 -25 -10 -50 -1 -25 -12 -89 -22 -144 -11 -54 -20 -107 -20
-117 0 -10 -3 -19 -7 -19 -5 0 -9 -24 -11 -53 -1 -28 -7 -54 -12 -55 -6 -2 -8
-8 -5 -12 10 -15 -18 -144 -34 -164 -11 -13 -11 -17 -2 -11 10 6 12 3 7 -13
-9 -26 -15 -58 -21 -102 -7 -51 -45 -243 -52 -260 -3 -8 -7 -22 -8 -30 -2 -8
-5 -24 -8 -35 -3 -11 -8 -33 -12 -50 -4 -16 -11 -34 -16 -40 -4 -5 -8 -13 -8
-17 -1 -5 -1 -9 -2 -10 0 -2 -2 -12 -4 -22 -2 -10 -7 -22 -12 -25 -4 -3 -8
-12 -9 -18 -2 -30 -5 -34 -14 -28 -6 4 -7 -1 -3 -11 5 -14 3 -16 -12 -11 -14
6 -16 5 -6 -7 9 -11 8 -17 -4 -30 -9 -8 -16 -18 -15 -21 1 -23 -2 -26 -17 -20
-14 5 -15 4 -6 -6 10 -10 8 -20 -9 -48 -12 -20 -26 -37 -30 -39 -4 -2 -8 -10
-8 -18 0 -8 -5 -14 -11 -14 -5 0 -8 -3 -5 -8 7 -12 -22 -45 -33 -37 -6 3 -9 0
-5 -8 6 -17 -75 -136 -92 -137 -7 0 -11 -8 -10 -17 0 -10 -5 -17 -12 -15 -8 1
-11 -1 -8 -6 5 -9 -56 -101 -77 -114 -6 -4 -8 -8 -3 -8 5 0 3 -7 -4 -15 -7 -8
-17 -12 -23 -8 -6 3 -7 1 -3 -6 10 -15 -13 -43 -27 -34 -6 3 -7 1 -3 -6 5 -7
-1 -20 -15 -32 -12 -10 -19 -19 -14 -19 4 0 2 -7 -5 -15 -7 -8 -17 -12 -24 -8
-6 3 -8 3 -4 -2 10 -10 -10 -35 -27 -35 -30 0 -36 55 -32 281 2 123 7 260 11
304 12 149 21 594 13 655 -4 25 -8 92 -11 150 -2 58 -7 114 -12 124 -6 15 -4
17 7 11 11 -7 12 -6 3 6 -10 12 -57 256 -58 302 0 9 -4 17 -8 17 -4 0 -8 11
-8 24 0 13 -7 40 -16 61 -8 21 -13 44 -10 51 3 8 2 14 -3 14 -4 0 -15 21 -24
48 -14 43 -14 48 1 61 15 12 15 12 -3 7 -17 -5 -23 1 -34 31 -8 21 -31 74 -52
118 -26 55 -35 83 -28 91 7 8 6 15 -2 20 -8 4 -9 3 -5 -4 4 -7 3 -12 -2 -12
-13 0 -42 62 -35 74 3 5 2 6 -4 3 -13 -8 -116 159 -108 173 4 6 1 9 -5 8 -7
-2 -17 6 -23 17 -7 11 -17 24 -23 30 -25 25 -85 105 -77 105 4 0 -3 7 -15 16
-12 8 -19 20 -16 26 4 6 2 8 -3 5 -6 -4 -18 4 -26 17 -9 13 -38 45 -66 71 -28
26 -48 52 -44 58 3 6 1 7 -5 3 -7 -4 -12 -3 -12 2 0 5 -12 14 -26 20 -15 7
-22 17 -18 24 4 6 3 8 -4 4 -6 -3 -14 -1 -19 6 -4 7 -17 19 -28 26 -11 7 -35
22 -52 33 -18 12 -33 25 -33 31 0 5 -4 7 -9 4 -5 -3 -12 1 -15 10 -3 8 -10 13
-15 9 -5 -3 -13 -1 -16 5 -4 6 -24 18 -46 27 -21 8 -39 19 -39 25 0 5 -4 7 -8
4 -4 -2 -28 5 -52 16 -25 12 -49 20 -53 19 -4 0 -17 4 -29 10 -11 6 -35 13
-52 16 -17 2 -38 7 -46 10 -17 7 -37 10 -81 12 -21 1 -28 5 -23 14 6 9 5 9 -7
0 -8 -6 -51 -12 -99 -12 -47 -1 -94 -3 -105 -6 -78 -18 -103 -25 -130 -36 -32
-12 -60 -20 -64 -19 -2 1 -7 -2 -10 -7 -9 -13 -124 -78 -134 -75 -4 1 -6 -4
-5 -10 2 -7 -3 -12 -10 -10 -6 1 -11 -4 -10 -10 2 -7 -3 -12 -10 -10 -8 1 -11
-1 -8 -6 7 -12 -68 -84 -78 -75 -4 4 -4 0 -1 -9 3 -8 -1 -22 -9 -31 -8 -8 -12
-17 -9 -21 4 -3 2 -6 -4 -6 -6 0 -14 -11 -17 -25 -4 -16 -11 -23 -18 -19 -6 4
-8 3 -5 -3 9 -14 -12 -75 -23 -68 -4 3 -6 -4 -3 -15 3 -11 0 -40 -6 -65 -13
-52 -15 -302 -2 -289 3 3 11 -17 18 -43 7 -26 15 -52 17 -58 17 -53 94 -211
118 -244 10 -13 18 -32 18 -43 0 -11 4 -17 9 -14 11 7 23 -22 14 -36 -3 -6 -2
-8 4 -5 12 8 46 -61 37 -75 -4 -6 -3 -8 3 -5 6 4 15 -5 21 -18 8 -17 8 -25 1
-25 -6 0 -7 -5 -4 -10 4 -6 10 -8 15 -5 10 6 31 -85 23 -99 -3 -5 -1 -6 5 -2
8 5 13 -4 14 -26 4 -72 6 -84 13 -101 4 -10 5 -75 1 -145 -4 -70 -7 -153 -7
-185 0 -51 -2 -58 -17 -52 -14 5 -15 4 -4 -6 6 -7 12 -24 12 -37 0 -16 -4 -21
-12 -16 -9 6 -9 3 1 -9 10 -13 11 -32 2 -98 -6 -45 -11 -105 -11 -134 0 -28
-2 -54 -5 -57 -3 -3 -8 -51 -10 -108 -3 -56 -7 -105 -10 -110 -2 -4 -7 -74
-10 -155 -4 -81 -10 -157 -14 -169 -4 -11 -9 -127 -10 -256 -2 -160 -6 -240
-14 -249 -9 -12 -9 -13 1 -7 9 5 12 -2 12 -27 0 -18 -3 -37 -7 -41 -9 -9 -10
-386 0 -386 4 0 6 -97 5 -215 -2 -118 0 -215 3 -215 4 0 6 -23 6 -50 0 -36 -4
-54 -16 -61 -13 -8 -12 -9 5 -4 22 6 24 -5 39 -205 2 -19 6 -42 9 -51 4 -9 5
-28 2 -42 -2 -14 -1 -27 4 -29 5 -2 10 -23 13 -48 2 -25 7 -52 11 -60 3 -8 7
-36 9 -63 1 -26 5 -47 8 -47 4 0 10 -15 13 -32 3 -18 8 -44 11 -58 3 -14 12
-53 20 -88 9 -34 13 -67 9 -74 -4 -7 -3 -8 4 -4 7 4 12 0 13 -11 1 -20 1 -21
28 -120 10 -40 17 -73 15 -73 -3 0 0 -8 5 -18 5 -9 12 -33 15 -53 3 -20 10
-48 15 -62 5 -14 7 -28 3 -32 -3 -3 -1 -9 5 -13 6 -4 13 -21 16 -37 2 -17 8
-41 14 -55 12 -29 27 -107 26 -132 0 -10 4 -15 8 -12 5 3 10 -7 11 -23 2 -41
3 -47 10 -59 4 -6 9 -24 12 -40 4 -16 11 -58 18 -94 7 -36 12 -90 13 -122 0
-31 3 -54 8 -51 10 6 6 -337 -5 -452 -5 -49 -10 -110 -12 -135 -2 -25 -6 -72
-9 -105 -3 -33 -7 -85 -10 -115 -13 -166 -31 -319 -36 -316 -3 3 -6 -12 -7
-32 -1 -97 -5 -133 -11 -129 -5 3 -9 -27 -10 -67 -2 -39 -7 -72 -11 -74 -4 -1
-7 -16 -6 -32 1 -16 -4 -64 -11 -107 -7 -43 -16 -94 -19 -113 -3 -19 -8 -60
-12 -90 -3 -30 -9 -57 -12 -60 -4 -3 -7 -23 -8 -45 0 -22 -3 -62 -7 -90 -9
-65 -14 -475 -6 -475 6 0 24 -109 23 -142 0 -10 4 -18 9 -18 5 0 7 -9 4 -20
-3 -11 -2 -20 2 -20 10 0 31 -62 24 -73 -3 -6 -1 -7 5 -3 7 4 12 1 12 -7 0
-26 99 -155 145 -188 25 -18 45 -36 45 -41 0 -4 3 -7 8 -7 20 3 32 -2 26 -13
-4 -6 -3 -8 4 -5 12 8 115 -16 107 -24 -3 -3 23 -2 57 3 62 9 164 52 203 86
31 27 103 138 110 172 4 16 10 30 13 30 4 0 8 17 10 37 1 20 6 39 10 43 4 3 8
27 10 55 2 27 7 52 11 55 10 6 9 481 -1 496 -4 6 -9 46 -12 90 -2 43 -7 86 -9
94 -3 8 -11 67 -17 130 -7 63 -14 129 -16 145 -1 17 -7 63 -13 103 -6 39 -10
75 -9 80 0 4 -1 14 -4 22 -4 8 -11 60 -18 115 -6 55 -13 116 -16 135 -3 19 -8
105 -10 190 -2 85 -6 189 -8 230 -7 144 17 238 56 214 7 -5 15 -9 18 -9 15 -1
59 -39 54 -46 -3 -5 -2 -8 3 -7 5 2 15 -2 23 -9 89 -73 91 -75 78 -92 -12 -14
-11 -14 4 -2 15 11 21 9 47 -17 17 -16 33 -27 36 -24 3 3 5 1 5 -5 0 -6 9 -13
21 -16 14 -4 18 -10 13 -19 -4 -7 -4 -10 1 -6 11 11 47 -11 39 -24 -5 -7 -2
-8 6 -3 7 4 15 4 19 -1 7 -10 17 -16 127 -74 43 -23 97 -51 119 -63 44 -25
109 -103 101 -123 -3 -7 -1 -16 3 -18 5 -3 9 -29 10 -58 1 -77 11 -177 21
-222 5 -22 7 -43 4 -47 -2 -4 0 -9 5 -11 5 -1 11 -12 13 -23 3 -21 14 -36 66
-96 35 -39 100 -77 149 -85 15 -2 39 -7 53 -11 14 -3 28 -6 31 -5 17 3 41 -42
45 -85 2 -26 8 -99 14 -162 5 -62 7 -117 4 -122 -3 -5 0 -9 5 -9 6 0 11 -7 11
-15 0 -19 46 -113 67 -137 8 -9 12 -22 7 -29 -4 -7 -3 -10 3 -6 6 4 22 -4 35
-16 14 -13 39 -29 57 -36 17 -8 31 -16 31 -20 0 -3 30 -7 66 -9 96 -5 162 19
224 80 27 28 52 59 55 69 4 11 11 17 16 14 5 -3 6 1 3 9 -4 10 -1 16 7 16 7 0
10 3 6 6 -3 3 1 24 9 46 8 22 14 51 14 64 0 13 3 24 8 24 8 0 10 173 1 180 -4
3 -9 32 -12 65 -3 33 -11 81 -16 107 -6 27 -10 51 -9 55 0 5 -2 16 -7 26 -4 9
-5 26 -2 37 3 11 2 18 -2 15 -5 -2 -18 45 -31 105 -20 95 -21 112 -9 127 13
16 12 17 -3 4 -17 -12 -18 -9 -18 53 0 42 4 65 10 61 6 -3 7 1 4 10 -6 13 -1
16 22 13 16 -2 28 -8 27 -15 -2 -7 3 -10 11 -7 16 6 98 -84 89 -99 -3 -5 -1
-7 4 -4 6 4 18 -2 28 -13 10 -11 16 -20 13 -20 -3 0 13 -19 34 -42 21 -23 36
-48 33 -56 -2 -7 -1 -11 3 -8 5 3 16 -4 25 -15 19 -21 22 -33 7 -24 -6 3 -7
-1 -3 -10 4 -11 8 -13 13 -6 4 7 15 2 30 -14 13 -14 20 -25 15 -25 -4 0 4 -9
19 -21 14 -11 23 -25 20 -31 -4 -7 -2 -8 4 -4 11 6 38 -31 34 -47 -1 -4 4 -6
10 -5 7 2 12 -3 10 -10 -1 -8 2 -11 7 -8 13 8 63 -53 54 -67 -3 -7 -3 -9 2 -5
9 8 111 -91 107 -104 -1 -5 2 -7 7 -4 8 5 89 -63 163 -137 15 -15 32 -27 37
-27 5 0 21 -13 34 -30 14 -16 29 -30 32 -30 13 0 110 -82 107 -91 -1 -5 1 -8
5 -7 13 3 63 -24 63 -34 0 -4 5 -8 11 -8 7 0 20 -10 30 -22 11 -11 19 -18 19
-14 0 3 18 -6 40 -20 22 -15 40 -31 40 -35 0 -5 3 -8 8 -7 10 2 68 -32 103
-60 16 -13 29 -21 29 -17 0 3 14 -2 30 -12 17 -9 30 -20 30 -23 0 -4 6 -7 13
-7 6 0 45 -19 86 -42 41 -22 78 -41 82 -41 5 0 9 -4 9 -10 0 -5 4 -9 9 -7 13
4 190 -86 185 -94 -2 -4 4 -7 13 -6 48 3 159 -90 187 -157 16 -39 21 -202 6
-211 -6 -3 -8 -10 -5 -15 9 -14 -28 -149 -38 -143 -6 3 -7 1 -3 -6 11 -17 -4
-92 -16 -84 -7 3 -8 1 -4 -5 11 -18 -4 -103 -17 -95 -6 3 -7 1 -3 -5 8 -13 -4
-113 -13 -108 -3 2 -7 -28 -8 -68 -7 -241 -7 -363 0 -359 5 3 8 -5 6 -18 -1
-13 2 -32 6 -43 4 -10 8 -31 9 -46 1 -15 4 -26 9 -23 4 2 7 -1 7 -6 0 -18 3
-26 17 -40 8 -7 12 -20 9 -28 -3 -8 -2 -12 2 -10 4 3 21 -12 37 -33 59 -75
178 -126 267 -116 22 2 65 17 96 32 32 16 61 27 65 26 5 -1 6 1 3 6 -7 12 38
54 49 45 4 -5 5 -2 1 5 -4 6 1 24 11 40 28 40 51 100 62 162 12 63 17 258 8
310 -6 34 -21 145 -32 225 -16 130 -22 220 -20 295 4 119 9 141 39 167 34 29
86 30 219 3 53 -11 138 -25 187 -32 49 -6 87 -14 85 -18 -2 -3 17 -6 43 -5 26
0 85 -3 132 -7 295 -24 369 -24 639 -2 71 6 83 5 77 -7 -4 -8 -1 -7 6 2 13 16
132 34 230 34 20 0 34 3 32 6 -5 9 95 21 108 13 7 -5 8 -3 3 6 -6 10 0 12 23
8 17 -2 33 -2 34 2 2 3 54 18 116 34 95 22 117 25 130 14 16 -12 16 -11 2 6
-14 18 -13 19 12 14 15 -3 25 -1 22 3 -5 8 13 13 44 12 6 -1 12 3 12 8 0 12
27 11 33 -1 3 -6 4 -5 3 2 -2 10 114 60 169 72 6 1 32 12 59 24 27 12 51 20
54 18 2 -3 11 2 19 10 8 8 19 12 24 9 5 -4 9 -2 9 3 0 6 14 15 30 21 17 5 28
7 26 2 -3 -4 1 -8 8 -8 8 0 12 5 10 12 -4 10 73 52 89 47 4 -1 7 2 7 7 0 5 19
17 43 27 23 10 46 20 51 22 5 3 5 -1 1 -8 -5 -9 -4 -11 4 -6 6 4 9 11 6 16 -7
11 24 22 37 13 6 -3 8 -1 4 5 -3 6 14 21 40 36 52 29 58 31 48 14 -5 -7 -3 -8
5 -4 7 5 10 11 6 14 -3 3 18 21 47 39 49 30 54 31 67 15 12 -15 13 -15 7 4 -5
18 0 26 28 44 20 12 40 19 46 15 6 -4 9 -1 8 6 -4 16 98 68 122 62 28 -7 46
-49 30 -68 -11 -13 -10 -14 4 -9 15 6 16 0 12 -47 -11 -110 -18 -142 -28 -128
-7 10 -8 9 -4 -5 4 -10 4 -34 0 -53 -6 -29 -8 -32 -23 -21 -14 12 -14 11 -3
-4 11 -14 11 -27 1 -72 -6 -30 -15 -54 -18 -52 -6 4 -10 -35 -10 -102 0 -19
-4 -31 -8 -29 -10 6 -8 -124 3 -213 5 -36 8 -71 7 -78 0 -6 2 -12 6 -12 8 0
36 -71 33 -83 -1 -5 2 -6 8 -2 5 3 10 1 10 -5 0 -6 13 -23 29 -38 40 -38 95
-85 99 -83 1 0 3 1 5 0 30 -9 55 -12 122 -15 70 -2 87 1 135 24 82 40 142 104
189 202 23 46 41 92 41 102 0 10 5 18 11 18 5 0 8 4 5 8 -3 4 0 26 5 48 6 21
10 52 10 67 -1 16 2 26 6 24 5 -3 8 29 8 71 1 168 25 241 78 233 4 0 7 3 7 7
0 4 22 16 48 25 81 30 160 109 178 181 3 14 9 24 13 22 4 -3 7 3 7 12 1 9 7
49 13 87 13 71 12 467 0 459 -9 -5 -21 95 -13 108 4 6 3 8 -3 5 -23 -15 -52
295 -30 322 10 12 9 13 -2 7 -11 -7 -12 16 -8 135 3 79 10 156 15 170 6 14 10
34 9 45 -1 11 4 18 11 16 9 -2 10 2 1 17 -7 11 -9 26 -4 37 12 28 16 47 16 67
0 9 4 17 10 17 5 0 8 8 7 18 -1 9 2 36 7 60 6 34 11 42 24 37 13 -5 14 -4 4 6
-14 14 -18 43 -5 36 4 -3 8 8 8 25 1 17 5 33 10 37 5 3 10 28 11 55 1 27 5 52
10 55 7 6 12 43 13 99 0 12 4 22 8 22 4 0 7 17 6 37 0 21 3 92 8 158 12 178
12 208 5 230 -3 11 -7 84 -9 162 -2 77 -6 139 -10 136 -5 -2 -9 13 -9 34 -3
85 -4 98 -10 103 -4 3 -10 22 -13 42 -3 21 -10 56 -15 79 -5 23 -8 50 -6 60 2
11 0 17 -6 14 -5 -4 -10 5 -10 19 -2 29 -2 33 -12 61 -3 11 -8 31 -11 45 -3
14 -9 40 -15 59 -6 19 -8 37 -6 42 3 4 1 9 -5 11 -5 1 -11 14 -12 28 -2 14 -6
27 -10 30 -4 3 -9 15 -11 25 -2 11 -9 31 -14 45 -6 14 -8 31 -5 39 3 9 1 12
-6 7 -11 -6 -15 5 -11 30 0 4 -5 10 -11 14 -7 4 -13 19 -13 34 -1 14 -5 26 -8
26 -6 0 -32 53 -35 70 0 3 -17 40 -37 83 -21 42 -38 83 -40 89 -1 7 -8 19 -15
26 -7 8 -10 18 -7 23 4 5 1 9 -4 9 -6 0 -11 7 -11 16 0 9 5 12 13 8 7 -4 9 -3
4 2 -5 5 -14 9 -20 9 -7 0 -23 22 -37 50 -14 27 -30 55 -37 62 -6 7 -17 26
-25 43 -7 16 -17 30 -22 30 -4 0 -5 7 -2 16 3 8 2 12 -4 9 -12 -7 -33 32 -24
47 4 6 3 8 -3 5 -10 -7 -43 34 -47 57 -1 6 -14 24 -29 40 -15 16 -27 33 -27
37 0 5 0 11 -1 14 0 2 -12 17 -27 33 -15 16 -34 42 -42 58 -8 16 -17 31 -20
34 -20 20 -70 91 -70 99 0 6 -4 11 -8 11 -11 0 -75 92 -75 107 0 7 -5 11 -11
10 -6 -1 -15 8 -21 21 -5 12 -13 22 -17 22 -5 0 -8 6 -8 14 0 8 -7 17 -16 20
-9 4 -15 9 -12 12 3 3 -8 18 -24 35 -26 26 -28 32 -17 47 12 15 12 16 -2 5
-13 -11 -19 -8 -38 17 -12 17 -19 36 -15 42 4 6 3 8 -3 5 -6 -4 -18 2 -28 13
-10 11 -16 20 -13 20 2 0 -19 26 -48 57 -29 31 -50 61 -47 66 3 6 1 7 -5 3 -6
-3 -16 3 -22 14 -6 11 -33 41 -60 66 -27 26 -48 50 -45 54 3 4 -4 10 -15 13
-11 3 -19 9 -18 15 2 5 -12 21 -30 36 -18 16 -29 33 -25 39 3 7 3 9 -2 5 -4
-4 -14 -3 -22 3 -16 14 -18 33 -1 23 7 -4 8 -3 4 5 -4 6 -12 9 -17 5 -12 -7
-79 56 -79 74 0 7 -4 11 -8 8 -11 -7 -93 69 -84 79 4 5 2 5 -4 2 -12 -7 -71
52 -66 66 1 5 -2 5 -8 2 -13 -8 -50 23 -50 42 0 7 -4 12 -9 11 -15 -4 -121 94
-114 105 3 6 1 7 -6 3 -12 -8 -88 52 -83 66 1 4 -1 7 -5 7 -21 -3 -24 3 -12
19 12 15 12 16 -2 4 -14 -10 -23 -6 -58 24 -22 20 -39 40 -36 44 3 4 -2 10
-10 14 -24 9 -14 57 15 70 39 16 124 72 139 90 7 9 18 13 24 9 5 -3 7 -2 4 4
-8 13 22 55 34 48 5 -3 6 2 2 11 -4 11 -2 15 4 11 6 -4 11 -1 10 6 -1 29 4 48
11 44 4 -3 7 5 8 16 0 12 6 52 12 88 7 37 11 122 11 190 -1 139 2 160 29 189
27 29 74 40 170 40 63 0 82 -3 77 -12 -4 -7 0 -5 8 5 11 13 26 18 54 16 21 -2
44 0 50 4 6 4 29 5 52 3 23 -2 39 0 36 5 -3 4 10 7 29 5 20 -1 37 1 38 5 2 5
28 9 58 11 30 2 58 7 61 11 3 4 17 9 30 11 13 2 32 7 42 11 9 4 24 4 33 1 10
-4 13 -2 8 6 -5 7 1 9 20 6 14 -3 26 -2 26 3 0 12 128 51 141 43 7 -4 9 -3 6
3 -7 12 68 37 83 28 6 -3 10 -1 10 5 0 19 52 2 73 -23 13 -15 18 -33 15 -59
-2 -21 0 -39 3 -40 4 -2 9 -51 11 -110 1 -60 6 -108 11 -108 4 0 7 -10 7 -22
0 -39 45 -121 90 -163 84 -80 90 -86 85 -95 -3 -4 -1 -10 4 -12 4 -1 11 -20
15 -41 4 -22 4 -37 -1 -34 -4 3 -8 -13 -7 -34 1 -22 -3 -59 -7 -82 -5 -23 -12
-64 -15 -91 -3 -28 -8 -54 -11 -59 -3 -5 -7 -26 -7 -46 -4 -75 -30 -301 -36
-301 -3 0 -5 -132 -5 -292 1 -282 9 -375 36 -441 9 -21 8 -31 -2 -45 -13 -15
-12 -16 4 -3 17 13 19 11 17 -24 -1 -3 6 -13 15 -21 8 -9 15 -21 15 -29 0 -7
3 -15 8 -17 14 -6 72 -85 67 -92 -3 -3 -2 -4 1 -1 4 2 27 -11 52 -30 25 -19
49 -35 54 -35 5 0 6 -5 2 -12 -4 -6 -3 -8 4 -4 6 3 23 1 39 -5 47 -19 114 -25
161 -15 22 5 39 3 50 -5 14 -11 15 -11 5 0 -9 11 -2 18 34 37 26 13 51 20 57
17 6 -3 8 -3 4 2 -4 4 9 26 28 48 50 55 91 148 105 237 12 82 18 329 7 333 -6
2 -20 159 -22 255 -1 28 -5 52 -9 52 -5 0 -7 17 -6 38 2 21 0 42 -3 48 -4 6
-10 41 -13 80 -3 38 -10 96 -14 129 -5 33 -12 89 -15 125 -3 36 -8 80 -12 99
-6 28 -5 33 7 26 12 -7 12 -6 1 7 -7 9 -12 22 -11 30 1 7 0 20 -4 28 -12 33
-15 168 -4 180 9 10 9 11 0 6 -9 -5 -12 8 -11 52 1 32 -1 63 -5 69 -4 6 -7 82
-7 169 0 88 -2 251 -5 362 -5 159 -3 207 7 220 11 13 11 14 0 8 -10 -6 -12 13
-7 96 3 56 10 128 16 158 6 30 12 60 13 66 1 7 8 20 16 30 9 11 10 15 3 10 -9
-5 -13 0 -13 13 0 12 5 21 11 21 5 0 8 4 5 9 -8 13 5 72 15 66 4 -3 11 0 15 6
4 8 3 9 -4 5 -7 -4 -12 -4 -12 0 0 16 24 84 29 84 3 0 7 12 8 26 0 15 6 30 13
34 6 4 11 10 11 14 -3 23 0 36 9 31 5 -3 7 0 4 9 -3 8 1 25 10 38 8 13 15 26
15 31 0 24 14 76 20 73 3 -2 7 6 7 17 3 37 37 202 43 207 15 13 13 376 -3 427
-6 18 -18 110 -20 151 0 12 -5 22 -10 22 -4 0 -6 6 -3 14 3 8 2 16 -3 18 -5 2
-10 17 -13 33 -2 17 -9 43 -16 59 -6 16 -10 31 -7 33 2 2 -2 16 -9 30 -7 14
-11 32 -8 39 3 8 1 14 -5 14 -13 0 -64 139 -56 152 4 6 2 8 -3 5 -10 -6 -58
93 -53 109 1 4 -3 10 -10 14 -6 4 -13 13 -14 21 -2 8 -11 34 -21 59 -11 25
-18 47 -16 49 1 2 -2 7 -7 10 -5 3 -17 35 -25 71 -24 95 -19 309 6 293 6 -3 7
-1 3 6 -8 13 12 111 22 111 4 0 8 10 9 23 0 12 7 36 14 52 7 17 11 36 10 44
-1 8 2 10 10 5 8 -4 10 -3 5 4 -8 14 14 92 26 92 5 0 6 4 3 10 -9 14 14 92 33
114 10 11 11 16 5 12 -17 -9 -16 3 2 37 8 16 9 25 3 21 -8 -5 -9 -1 -5 10 4
10 13 58 19 107 7 49 15 89 18 89 4 0 3 129 -4 392 0 25 -4 44 -8 41 -5 -2 -9
8 -9 24 -2 48 -6 68 -27 153 -5 20 -8 43 -6 53 1 9 -2 17 -8 17 -6 0 -8 9 -5
20 3 12 1 17 -5 14 -5 -3 -8 0 -7 7 2 13 -2 27 -21 74 -4 11 -13 36 -20 55 -7
19 -19 50 -27 68 -8 18 -11 37 -7 44 4 7 3 8 -4 4 -12 -7 -15 1 -15 36 0 9 -5
16 -11 15 -6 -1 -11 8 -10 20 0 12 -3 20 -8 17 -4 -3 -8 1 -8 10 0 8 -5 16
-11 18 -6 2 -11 16 -11 31 0 15 -4 24 -9 22 -4 -3 -13 4 -19 15 -6 11 -8 20
-5 20 3 0 -4 9 -15 20 -11 11 -17 26 -14 35 4 10 2 15 -7 13 -8 -2 -13 3 -11
10 1 6 -3 12 -9 12 -8 0 -7 5 1 15 11 13 10 14 -3 9 -18 -6 -42 30 -31 48 4 6
3 8 -3 5 -9 -6 -51 51 -145 191 -9 14 -14 30 -11 35 3 6 1 7 -5 4 -5 -4 -24
12 -41 35 -17 24 -55 70 -85 103 -91 100 -95 106 -91 126 2 11 0 17 -6 14 -5
-4 -6 -12 -3 -18 4 -7 -24 18 -62 54 -38 37 -91 87 -118 110 -27 24 -59 54
-72 66 -13 12 -24 19 -24 16 0 -3 -9 2 -20 12 -11 10 -17 22 -13 28 3 6 1 7
-6 3 -11 -7 -81 37 -89 56 -2 4 -9 8 -16 8 -7 0 -21 8 -32 18 -10 10 -34 24
-51 31 -18 7 -30 17 -27 22 3 5 -2 9 -11 9 -20 0 -97 39 -107 54 -4 6 -8 7 -8
2 0 -4 -11 -1 -25 8 -13 9 -31 16 -40 16 -8 0 -15 5 -15 10 0 5 -3 9 -7 9 -22
-4 -33 2 -27 13 5 8 2 9 -9 5 -22 -8 -49 2 -40 16 3 6 1 7 -5 3 -7 -4 -26 -1
-44 7 -18 8 -46 19 -63 25 -16 6 -39 14 -50 18 -27 10 -32 11 -51 13 -8 0 -13
4 -11 9 3 4 -8 7 -23 8 -15 1 -36 5 -46 9 -11 4 -28 10 -39 12 -11 2 -27 6
-35 10 -8 3 -22 7 -30 8 -49 6 -79 18 -74 27 5 7 2 8 -7 2 -14 -9 -57 -7 -74
4 -5 3 -21 7 -35 8 -14 2 -47 5 -75 8 -135 14 -168 17 -265 19 -58 1 -175 -3
-260 -9z m-290 -6132 c41 -18 45 -19 66 -21 9 0 12 -6 8 -13 -5 -7 -2 -9 7 -6
22 8 62 -10 53 -24 -6 -10 -5 -10 7 -2 11 9 25 7 62 -11 26 -13 47 -22 47 -20
0 7 75 -27 103 -47 16 -11 26 -26 23 -34 -3 -8 0 -11 9 -8 17 7 49 -41 41 -61
-3 -9 -2 -13 4 -10 15 9 23 -60 17 -153 -4 -48 -9 -132 -12 -187 -3 -55 -8
-120 -12 -145 -3 -25 -5 -51 -4 -57 4 -23 -66 -6 -113 26 -24 17 -64 49 -88
70 -23 22 -54 50 -68 61 -14 12 -19 18 -11 14 9 -5 12 -3 7 5 -4 6 -11 9 -16
6 -4 -3 -13 2 -20 10 -7 8 -10 15 -8 15 3 0 -19 25 -49 56 -29 31 -51 59 -48
62 2 3 -4 12 -14 21 -21 18 -78 106 -63 97 6 -4 14 -1 18 5 4 7 3 9 -4 5 -13
-8 -44 22 -37 35 4 5 2 9 -3 9 -12 0 -36 58 -35 82 1 10 -2 16 -6 14 -12 -8
-33 71 -36 136 -3 45 1 60 16 73 10 10 25 15 34 11 9 -3 13 -2 10 4 -8 14 72
1 115 -18z m-917 -1967 c42 -22 147 -116 141 -127 -3 -4 -1 -7 5 -6 13 4 92
-83 85 -94 -3 -5 0 -7 8 -6 7 2 12 -4 10 -12 -2 -8 0 -12 4 -7 9 9 54 -32 54
-50 0 -7 3 -12 8 -10 12 3 82 -65 76 -75 -3 -5 0 -7 8 -6 7 2 12 -3 10 -10 -1
-8 1 -11 6 -8 12 7 104 -88 95 -98 -5 -4 -3 -6 4 -4 12 3 15 1 118 -96 39 -36
87 -79 107 -97 21 -17 35 -36 31 -42 -3 -5 -2 -7 3 -4 13 7 76 -48 66 -58 -4
-5 -2 -5 5 -2 6 4 20 -4 31 -18 11 -14 24 -25 29 -25 5 0 41 -31 81 -69 40
-37 72 -66 72 -63 0 3 9 -3 20 -13 11 -10 17 -22 14 -27 -3 -4 -2 -7 3 -6 14
5 83 -64 76 -76 -3 -6 -2 -8 2 -3 11 10 46 -23 38 -36 -3 -6 -1 -7 5 -3 6 4
16 -4 23 -16 7 -13 15 -25 18 -28 15 -12 42 -71 37 -79 -4 -5 -1 -11 4 -13 16
-5 23 -209 10 -308 -12 -100 -13 -202 -1 -262 4 -24 7 -54 6 -66 -1 -12 0 -20
3 -17 8 7 61 -79 55 -89 -3 -5 -2 -6 4 -3 13 8 65 -27 56 -38 -5 -4 -3 -5 4
-2 6 4 35 1 64 -6 44 -12 60 -12 96 -1 58 18 110 15 119 -5 12 -30 14 -71 3
-71 -6 0 -9 -7 -5 -15 9 -25 -56 -185 -76 -185 -4 0 -7 -3 -6 -7 8 -26 -153
-209 -176 -200 -10 4 -13 1 -10 -7 6 -16 -19 -38 -37 -34 -8 2 -13 -3 -12 -9
4 -17 -43 -47 -58 -37 -7 4 -9 3 -5 -4 8 -14 -79 -66 -95 -56 -7 4 -9 3 -6 -3
8 -13 -41 -36 -55 -27 -6 4 -8 2 -5 -3 8 -13 -20 -26 -35 -16 -6 3 -8 1 -5 -4
8 -13 -184 -76 -235 -77 -20 -1 -34 -4 -31 -8 2 -5 -8 -8 -22 -8 -17 0 -24 4
-19 12 4 7 3 8 -5 4 -6 -4 -8 -12 -5 -18 4 -6 -3 -9 -17 -7 -13 1 -32 -1 -41
-5 -10 -5 -84 -8 -165 -9 -184 -1 -235 2 -229 12 3 5 -5 6 -17 4 -12 -2 -42 1
-67 7 -25 6 -56 13 -70 16 -14 2 -34 8 -45 11 -11 4 -22 7 -25 8 -53 11 -69
18 -64 27 4 7 2 8 -5 4 -13 -8 -81 14 -81 26 0 4 -3 7 -7 6 -16 -4 -83 24 -83
34 0 6 -3 8 -6 5 -9 -9 -104 43 -104 56 0 6 -3 8 -6 4 -9 -8 -64 21 -64 34 0
6 -4 8 -10 4 -5 -3 -18 3 -28 13 -10 10 -26 21 -35 25 -9 3 -17 11 -17 17 0 5
-7 10 -16 10 -10 0 -14 6 -11 14 4 9 0 12 -11 10 -9 -2 -33 9 -52 26 -112 97
-138 121 -191 183 -33 37 -56 73 -53 79 4 7 3 8 -4 4 -10 -6 -44 44 -41 60 0
4 -3 10 -8 13 -11 7 -43 75 -43 91 0 6 4 9 9 5 5 -3 13 0 17 6 4 8 3 9 -5 5
-6 -4 -14 0 -17 9 -8 21 18 50 84 92 88 57 165 175 178 273 2 14 6 36 9 49 9
37 7 268 -4 351 -5 41 -9 105 -8 143 3 89 11 96 123 92 90 -2 142 14 179 56
10 10 24 19 32 19 8 0 12 4 9 9 -8 12 19 33 29 23 5 -4 5 -2 2 5 -10 16 3 44
16 36 5 -3 7 -1 4 4 -4 6 0 27 8 47 8 20 15 37 16 38 0 2 5 21 10 43 13 47 27
495 17 495 -11 0 -8 158 4 215 10 47 29 75 52 75 6 0 23 -7 39 -15z"/>
<path d="M12595 12029 c-4 -6 -5 -12 -2 -15 2 -3 7 2 10 11 7 17 1 20 -8 4z"/>
<path d="M12495 11800 c3 -5 8 -10 11 -10 2 0 4 5 4 10 0 6 -5 10 -11 10 -5 0
-7 -4 -4 -10z"/>
<path d="M12916 11442 c-3 -5 1 -9 9 -9 8 0 12 4 9 9 -3 4 -7 8 -9 8 -2 0 -6
-4 -9 -8z"/>
<path d="M12816 11382 c-3 -5 1 -9 9 -9 8 0 12 4 9 9 -3 4 -7 8 -9 8 -2 0 -6
-4 -9 -8z"/>
<path d="M12976 11278 c3 -5 10 -6 15 -3 13 9 11 12 -6 12 -8 0 -12 -4 -9 -9z"/>
<path d="M11633 9927 c0 -8 6 -14 14 -14 9 0 10 4 2 14 -6 7 -12 13 -14 13 -1
0 -2 -6 -2 -13z"/>
<path d="M11856 9902 c-3 -5 1 -9 9 -9 8 0 12 4 9 9 -3 4 -7 8 -9 8 -2 0 -6
-4 -9 -8z"/>
<path d="M11980 9726 c0 -2 8 -10 18 -17 15 -13 16 -12 3 4 -13 16 -21 21 -21
13z"/>
<path d="M12070 9601 c0 -6 4 -13 10 -16 6 -3 7 1 4 9 -7 18 -14 21 -14 7z"/>
<path d="M12150 9560 c0 -5 5 -10 11 -10 5 0 7 5 4 10 -3 6 -8 10 -11 10 -2 0
-4 -4 -4 -10z"/>
<path d="M12875 8881 c-3 -5 -2 -12 3 -15 5 -3 9 1 9 9 0 17 -3 19 -12 6z"/>
<path d="M13354 7982 c4 -3 14 -7 22 -8 9 -1 13 0 10 4 -4 3 -14 7 -22 8 -9 1
-13 0 -10 -4z"/>
<path d="M13316 7787 c3 -10 9 -15 12 -12 3 3 0 11 -7 18 -10 9 -11 8 -5 -6z"/>
<path d="M13236 7753 c-6 -14 -5 -15 5 -6 7 7 10 15 7 18 -3 3 -9 -2 -12 -12z"/>
<path d="M11230 7599 c0 -5 5 -7 10 -4 6 3 10 8 10 11 0 2 -4 4 -10 4 -5 0
-10 -5 -10 -11z"/>
<path d="M13175 7580 c3 -5 8 -10 11 -10 2 0 4 5 4 10 0 6 -5 10 -11 10 -5 0
-7 -4 -4 -10z"/>
<path d="M11349 7563 c-13 -16 -12 -17 4 -4 9 7 17 15 17 17 0 8 -8 3 -21 -13z"/>
<path d="M11540 7406 c0 -2 8 -10 18 -17 15 -13 16 -12 3 4 -13 16 -21 21 -21
13z"/>
<path d="M11775 7299 c-3 -4 2 -6 10 -5 21 3 28 13 10 13 -9 0 -18 -4 -20 -8z"/>
<path d="M12596 18178 c3 -5 10 -6 15 -3 13 9 11 12 -6 12 -8 0 -12 -4 -9 -9z"/>
<path d="M13550 18179 c0 -5 5 -7 10 -4 6 3 10 8 10 11 0 2 -4 4 -10 4 -5 0
-10 -5 -10 -11z"/>
<path d="M12036 18033 c-6 -14 -5 -15 5 -6 7 7 10 15 7 18 -3 3 -9 -2 -12 -12z"/>
<path d="M11879 17973 c-12 -16 -12 -17 2 -6 9 7 20 9 24 5 5 -4 5 -1 1 6 -9
16 -11 15 -27 -5z"/>
<path d="M11800 17960 c8 -5 20 -10 25 -10 6 0 3 5 -5 10 -8 5 -19 10 -25 10
-5 0 -3 -5 5 -10z"/>
<path d="M14350 17919 c0 -5 5 -7 10 -4 6 3 10 8 10 11 0 2 -4 4 -10 4 -5 0
-10 -5 -10 -11z"/>
<path d="M11393 17705 c0 -8 4 -12 9 -9 5 3 6 10 3 15 -9 13 -12 11 -12 -6z"/>
<path d="M11326 17658 c3 -5 10 -6 15 -3 13 9 11 12 -6 12 -8 0 -12 -4 -9 -9z"/>
<path d="M14740 17620 c-8 -5 -10 -10 -5 -10 6 0 17 5 25 10 8 5 11 10 5 10
-5 0 -17 -5 -25 -10z"/>
<path d="M11147 17559 c7 -7 15 -10 18 -7 3 3 -2 9 -12 12 -14 6 -15 5 -6 -5z"/>
<path d="M15020 17486 c0 -2 8 -10 18 -17 15 -13 16 -12 3 4 -13 16 -21 21
-21 13z"/>
<path d="M10981 17396 c-9 -11 -9 -16 1 -22 7 -4 10 -4 6 1 -4 4 -3 14 3 22 6
7 9 13 6 13 -2 0 -10 -6 -16 -14z"/>
<path d="M10589 17203 c-13 -16 -12 -17 4 -4 16 13 21 21 13 21 -2 0 -10 -8
-17 -17z"/>
<path d="M15140 17166 c0 -2 8 -10 18 -17 15 -13 16 -12 3 4 -13 16 -21 21
-21 13z"/>
<path d="M15353 16895 c0 -8 4 -12 9 -9 5 3 6 10 3 15 -9 13 -12 11 -12 -6z"/>
<path d="M15546 16642 c-3 -5 1 -9 9 -9 8 0 12 4 9 9 -3 4 -7 8 -9 8 -2 0 -6
-4 -9 -8z"/>
<path d="M9796 16082 c-3 -5 1 -9 9 -9 8 0 12 4 9 9 -3 4 -7 8 -9 8 -2 0 -6
-4 -9 -8z"/>
<path d="M15655 15929 c-4 -6 -5 -12 -2 -15 2 -3 7 2 10 11 7 17 1 20 -8 4z"/>
<path d="M15650 15820 c0 -5 5 -10 11 -10 5 0 7 5 4 10 -3 6 -8 10 -11 10 -2
0 -4 -4 -4 -10z"/>
<path d="M9675 15800 c-3 -5 -1 -10 4 -10 6 0 11 5 11 10 0 6 -2 10 -4 10 -3
0 -8 -4 -11 -10z"/>
<path d="M15656 15662 c-3 -5 1 -9 9 -9 8 0 12 4 9 9 -3 4 -7 8 -9 8 -2 0 -6
-4 -9 -8z"/>
<path d="M9555 15611 c-3 -5 -2 -12 3 -15 5 -3 9 1 9 9 0 17 -3 19 -12 6z"/>
<path d="M15745 15400 c-3 -6 1 -7 9 -4 18 7 21 14 7 14 -6 0 -13 -4 -16 -10z"/>
<path d="M9236 15033 c-6 -14 -5 -15 5 -6 7 7 10 15 7 18 -3 3 -9 -2 -12 -12z"/>
<path d="M15475 14750 c-4 -6 -11 -7 -17 -4 -7 4 -8 2 -4 -5 6 -9 11 -9 22 0
14 11 18 19 10 19 -3 0 -8 -5 -11 -10z"/>
<path d="M9130 14579 c0 -5 5 -7 10 -4 6 3 10 8 10 11 0 2 -4 4 -10 4 -5 0
-10 -5 -10 -11z"/>
<path d="M15566 14558 c3 -5 10 -6 15 -3 13 9 11 12 -6 12 -8 0 -12 -4 -9 -9z"/>
<path d="M15567 14359 c7 -7 15 -10 18 -7 3 3 -2 9 -12 12 -14 6 -15 5 -6 -5z"/>
<path d="M9010 14285 c0 -5 5 -17 10 -25 5 -8 10 -10 10 -5 0 6 -5 17 -10 25
-5 8 -10 11 -10 5z"/>
<path d="M15595 14280 c3 -5 8 -10 11 -10 2 0 4 5 4 10 0 6 -5 10 -11 10 -5 0
-7 -4 -4 -10z"/>
<path d="M8981 14156 c-9 -11 -9 -16 1 -22 7 -4 10 -4 6 1 -4 4 -3 14 3 22 6
7 9 13 6 13 -2 0 -10 -6 -16 -14z"/>
<path d="M8916 13953 c-6 -14 -5 -15 5 -6 7 7 10 15 7 18 -3 3 -9 -2 -12 -12z"/>
<path d="M8830 13736 c0 -2 8 -10 18 -17 15 -13 16 -12 3 4 -13 16 -21 21 -21
13z"/>
<path d="M6436 13638 c3 -5 10 -6 15 -3 13 9 11 12 -6 12 -8 0 -12 -4 -9 -9z"/>
<path d="M15770 13620 c0 -5 5 -10 11 -10 5 0 7 5 4 10 -3 6 -8 10 -11 10 -2
0 -4 -4 -4 -10z"/>
<path d="M6629 13603 c-13 -16 -12 -17 4 -4 16 13 21 21 13 21 -2 0 -10 -8
-17 -17z"/>
<path d="M6127 13579 c7 -7 15 -10 18 -7 3 3 -2 9 -12 12 -14 6 -15 5 -6 -5z"/>
<path d="M8806 13578 c3 -5 10 -6 15 -3 13 9 11 12 -6 12 -8 0 -12 -4 -9 -9z"/>
<path d="M8790 13561 c0 -6 4 -13 10 -16 6 -3 7 1 4 9 -7 18 -14 21 -14 7z"/>
<path d="M6006 13542 c-3 -5 1 -9 9 -9 8 0 12 4 9 9 -3 4 -7 8 -9 8 -2 0 -6
-4 -9 -8z"/>
<path d="M6755 13529 c-4 -6 -5 -12 -2 -15 2 -3 7 2 10 11 7 17 1 20 -8 4z"/>
<path d="M5870 13459 c0 -5 5 -7 10 -4 6 3 10 8 10 11 0 2 -4 4 -10 4 -5 0
-10 -5 -10 -11z"/>
<path d="M8775 13400 c3 -5 8 -10 11 -10 2 0 4 5 4 10 0 6 -5 10 -11 10 -5 0
-7 -4 -4 -10z"/>
<path d="M5596 13333 c-6 -14 -5 -15 5 -6 7 7 10 15 7 18 -3 3 -9 -2 -12 -12z"/>
<path d="M5736 13342 c-3 -5 1 -9 9 -9 8 0 12 4 9 9 -3 4 -7 8 -9 8 -2 0 -6
-4 -9 -8z"/>
<path d="M7060 13320 c-9 -6 -10 -10 -3 -10 6 0 15 5 18 10 8 12 4 12 -15 0z"/>
<path d="M15759 13138 c-5 -18 -6 -38 -1 -34 7 8 12 36 6 36 -2 0 -4 -1 -5 -2z"/>
<path d="M7345 13039 c-3 -4 2 -6 10 -5 21 3 28 13 10 13 -9 0 -18 -4 -20 -8z"/>
<path d="M15795 13011 c-3 -5 -2 -12 3 -15 5 -3 9 1 9 9 0 17 -3 19 -12 6z"/>
<path d="M7340 12980 c-9 -6 -10 -10 -3 -10 6 0 15 5 18 10 8 12 4 12 -15 0z"/>
<path d="M5566 12922 c-3 -5 1 -9 9 -9 8 0 12 4 9 9 -3 4 -7 8 -9 8 -2 0 -6
-4 -9 -8z"/>
<path d="M8620 12906 c0 -2 8 -10 18 -17 15 -13 16 -12 3 4 -13 16 -21 21 -21
13z"/>
<path d="M5506 12842 c-3 -5 1 -9 9 -9 8 0 12 4 9 9 -3 4 -7 8 -9 8 -2 0 -6
-4 -9 -8z"/>
<path d="M5596 12802 c-3 -5 1 -9 9 -9 8 0 12 4 9 9 -3 4 -7 8 -9 8 -2 0 -6
-4 -9 -8z"/>
<path d="M7490 12761 c0 -6 4 -13 10 -16 6 -3 7 1 4 9 -7 18 -14 21 -14 7z"/>
<path d="M7667 12679 c7 -7 15 -10 18 -7 3 3 -2 9 -12 12 -14 6 -15 5 -6 -5z"/>
<path d="M8593 12675 c0 -8 4 -12 9 -9 5 3 6 10 3 15 -9 13 -12 11 -12 -6z"/>
<path d="M5656 12622 c-3 -5 1 -9 9 -9 8 0 12 4 9 9 -3 4 -7 8 -9 8 -2 0 -6
-4 -9 -8z"/>
<path d="M7573 12575 c0 -8 4 -12 9 -9 5 3 6 10 3 15 -9 13 -12 11 -12 -6z"/>
<path d="M8615 12560 c3 -5 8 -10 11 -10 2 0 4 5 4 10 0 6 -5 10 -11 10 -5 0
-7 -4 -4 -10z"/>
<path d="M5696 12547 c3 -10 9 -15 12 -12 3 3 0 11 -7 18 -10 9 -11 8 -5 -6z"/>
<path d="M7626 12478 c3 -5 10 -6 15 -3 13 9 11 12 -6 12 -8 0 -12 -4 -9 -9z"/>
<path d="M5714 12462 c4 -3 14 -7 22 -8 9 -1 13 0 10 4 -4 3 -14 7 -22 8 -9 1
-13 0 -10 -4z"/>
<path d="M5827 12279 c7 -7 15 -10 18 -7 3 3 -2 9 -12 12 -14 6 -15 5 -6 -5z"/>
<path d="M7755 12200 c3 -5 8 -10 11 -10 2 0 4 5 4 10 0 6 -5 10 -11 10 -5 0
-7 -4 -4 -10z"/>
<path d="M5800 12166 c0 -2 8 -10 18 -17 15 -13 16 -12 3 4 -13 16 -21 21 -21
13z"/>
<path d="M8530 12119 c0 -5 5 -7 10 -4 6 3 10 8 10 11 0 2 -4 4 -10 4 -5 0
-10 -5 -10 -11z"/>
<path d="M7745 12080 c-3 -6 1 -7 9 -4 18 7 21 14 7 14 -6 0 -13 -4 -16 -10z"/>
<path d="M8513 12045 c0 -8 4 -12 9 -9 5 3 6 10 3 15 -9 13 -12 11 -12 -6z"/>
<path d="M5936 11947 c3 -10 9 -15 12 -12 3 3 0 11 -7 18 -10 9 -11 8 -5 -6z"/>
<path d="M7775 11940 c-3 -5 -1 -10 4 -10 6 0 11 5 11 10 0 6 -2 10 -4 10 -3
0 -8 -4 -11 -10z"/>
<path d="M14500 11846 c0 -2 8 -10 18 -17 15 -13 16 -12 3 4 -13 16 -21 21
-21 13z"/>
<path d="M8475 11820 c-3 -5 -1 -10 4 -10 6 0 11 5 11 10 0 6 -2 10 -4 10 -3
0 -8 -4 -11 -10z"/>
<path d="M5933 11785 c0 -8 4 -12 9 -9 5 3 6 10 3 15 -9 13 -12 11 -12 -6z"/>
<path d="M14155 11769 c-4 -6 -5 -12 -2 -15 2 -3 7 2 10 11 7 17 1 20 -8 4z"/>
<path d="M14716 11762 c-3 -5 1 -9 9 -9 8 0 12 4 9 9 -3 4 -7 8 -9 8 -2 0 -6
-4 -9 -8z"/>
<path d="M13693 11735 c0 -8 4 -12 9 -9 5 3 6 10 3 15 -9 13 -12 11 -12 -6z"/>
<path d="M13953 11735 c0 -8 4 -12 9 -9 5 3 6 10 3 15 -9 13 -12 11 -12 -6z"/>
<path d="M5910 11705 c0 -7 30 -13 34 -7 3 4 -4 9 -15 9 -10 1 -19 0 -19 -2z"/>
<path d="M7833 11633 c0 -9 4 -10 14 -2 7 6 13 12 13 14 0 1 -6 2 -13 2 -8 0
-14 -6 -14 -14z"/>
<path d="M14233 11565 c0 -8 4 -12 9 -9 5 3 6 10 3 15 -9 13 -12 11 -12 -6z"/>
<path d="M5875 11480 c-3 -5 -1 -10 4 -10 6 0 11 5 11 10 0 6 -2 10 -4 10 -3
0 -8 -4 -11 -10z"/>
<path d="M7816 11422 c-3 -5 1 -9 9 -9 8 0 12 4 9 9 -3 4 -7 8 -9 8 -2 0 -6
-4 -9 -8z"/>
<path d="M7833 11355 c0 -8 4 -12 9 -9 4 3 8 9 8 15 0 5 -4 9 -8 9 -5 0 -9 -7
-9 -15z"/>
<path d="M7815 11300 c-3 -5 -1 -10 4 -10 6 0 11 5 11 10 0 6 -2 10 -4 10 -3
0 -8 -4 -11 -10z"/>
<path d="M5890 11139 c0 -5 5 -7 10 -4 6 3 10 8 10 11 0 2 -4 4 -10 4 -5 0
-10 -5 -10 -11z"/>
<path d="M8269 11123 c-13 -16 -12 -17 4 -4 16 13 21 21 13 21 -2 0 -10 -8
-17 -17z"/>
<path d="M8116 10807 c3 -10 9 -15 12 -12 3 3 0 11 -7 18 -10 9 -11 8 -5 -6z"/>
<path d="M7786 10742 c-3 -5 1 -9 9 -9 8 0 12 4 9 9 -3 4 -7 8 -9 8 -2 0 -6
-4 -9 -8z"/>
<path d="M13596 10727 c3 -10 9 -15 12 -12 3 3 0 11 -7 18 -10 9 -11 8 -5 -6z"/>
<path d="M5839 10693 c-12 -16 -12 -17 2 -6 9 7 20 9 24 5 5 -4 5 -1 1 6 -9
16 -11 15 -27 -5z"/>
<path d="M13793 10605 c0 -8 4 -12 9 -9 5 3 6 10 3 15 -9 13 -12 11 -12 -6z"/>
<path d="M5830 10600 c0 -5 5 -10 11 -10 5 0 7 5 4 10 -3 6 -8 10 -11 10 -2 0
-4 -4 -4 -10z"/>
<path d="M5825 10520 c-3 -6 1 -7 9 -4 18 7 21 14 7 14 -6 0 -13 -4 -16 -10z"/>
<path d="M7873 10515 c0 -8 4 -12 9 -9 5 3 6 10 3 15 -9 13 -12 11 -12 -6z"/>
<path d="M7936 10498 c3 -4 11 -5 19 -1 21 7 19 12 -4 10 -11 0 -18 -5 -15 -9z"/>
<path d="M5835 10480 c-3 -5 -1 -10 4 -10 6 0 11 5 11 10 0 6 -2 10 -4 10 -3
0 -8 -4 -11 -10z"/>
<path d="M7787 10399 c7 -7 15 -10 18 -7 3 3 -2 9 -12 12 -14 6 -15 5 -6 -5z"/>
<path d="M7830 10400 c0 -5 5 -10 10 -10 6 0 10 5 10 10 0 6 -4 10 -10 10 -5
0 -10 -4 -10 -10z"/>
<path d="M7790 10360 c0 -5 5 -10 11 -10 5 0 7 5 4 10 -3 6 -8 10 -11 10 -2 0
-4 -4 -4 -10z"/>
<path d="M14033 10345 c0 -8 4 -12 9 -9 5 3 6 10 3 15 -9 13 -12 11 -12 -6z"/>
<path d="M7790 10326 c0 -2 7 -7 16 -10 8 -3 12 -2 9 4 -6 10 -25 14 -25 6z"/>
<path d="M14855 10241 c-3 -5 -2 -12 3 -15 5 -3 9 1 9 9 0 17 -3 19 -12 6z"/>
<path d="M5795 9960 c-3 -5 -1 -10 4 -10 6 0 11 5 11 10 0 6 -2 10 -4 10 -3 0
-8 -4 -11 -10z"/>
<path d="M14610 9619 c0 -5 5 -7 10 -4 6 3 10 8 10 11 0 2 -4 4 -10 4 -5 0
-10 -5 -10 -11z"/>
<path d="M5835 9480 c-3 -5 -1 -10 4 -10 6 0 11 5 11 10 0 6 -2 10 -4 10 -3 0
-8 -4 -11 -10z"/>
<path d="M5835 9400 c3 -5 8 -10 11 -10 2 0 4 5 4 10 0 6 -5 10 -11 10 -5 0
-7 -4 -4 -10z"/>
<path d="M5836 9318 c3 -5 10 -6 15 -3 13 9 11 12 -6 12 -8 0 -12 -4 -9 -9z"/>
<path d="M14875 9309 c-4 -6 -5 -12 -2 -15 2 -3 7 2 10 11 7 17 1 20 -8 4z"/>
<path d="M15020 9020 c-12 -7 -10 -9 7 -7 12 0 19 5 17 9 -6 10 -6 10 -24 -2z"/>
<path d="M5830 9000 c0 -5 5 -10 11 -10 5 0 7 5 4 10 -3 6 -8 10 -11 10 -2 0
-4 -4 -4 -10z"/>
<path d="M15126 8798 c3 -5 10 -6 15 -3 13 9 11 12 -6 12 -8 0 -12 -4 -9 -9z"/>
<path d="M5920 8700 c-9 -6 -10 -10 -3 -10 6 0 15 5 18 10 8 12 4 12 -15 0z"/>
<path d="M5795 8680 c3 -5 8 -10 11 -10 2 0 4 5 4 10 0 6 -5 10 -11 10 -5 0
-7 -4 -4 -10z"/>
<path d="M5955 8541 c-3 -5 -2 -12 3 -15 5 -3 9 1 9 9 0 17 -3 19 -12 6z"/>
<path d="M5966 8422 c-3 -5 1 -9 9 -9 8 0 12 4 9 9 -3 4 -7 8 -9 8 -2 0 -6 -4
-9 -8z"/>
<path d="M15330 8261 c0 -6 4 -13 10 -16 6 -3 7 1 4 9 -7 18 -14 21 -14 7z"/>
<path d="M6034 8216 c1 -8 5 -18 8 -22 4 -3 5 1 4 10 -1 8 -5 18 -8 22 -4 3
-5 -1 -4 -10z"/>
<path d="M15426 7838 c3 -5 10 -6 15 -3 13 9 11 12 -6 12 -8 0 -12 -4 -9 -9z"/>
<path d="M15450 7541 c0 -6 4 -13 10 -16 6 -3 7 1 4 9 -7 18 -14 21 -14 7z"/>
<path d="M15455 7500 c-3 -5 -1 -10 4 -10 6 0 11 5 11 10 0 6 -2 10 -4 10 -3
0 -8 -4 -11 -10z"/>
<path d="M15453 7331 c0 -11 5 -18 9 -15 4 3 5 11 1 19 -7 21 -12 19 -10 -4z"/>
<path d="M15454 7258 c-4 -7 -4 -10 1 -6 4 4 15 2 24 -5 14 -11 14 -10 2 6
-16 20 -18 21 -27 5z"/>
<path d="M7366 6458 c3 -5 10 -6 15 -3 13 9 11 12 -6 12 -8 0 -12 -4 -9 -9z"/>
<path d="M8685 6040 c-3 -6 1 -7 9 -4 18 7 21 14 7 14 -6 0 -13 -4 -16 -10z"/>
<path d="M8955 5769 c-4 -6 -5 -12 -2 -15 2 -3 7 2 10 11 7 17 1 20 -8 4z"/>
<path d="M9549 5203 c-13 -16 -12 -17 4 -4 16 13 21 21 13 21 -2 0 -10 -8 -17
-17z"/>
<path d="M14256 5142 c-2 -4 -1 -14 4 -22 7 -11 9 -9 7 8 -1 24 -3 26 -11 14z"/>
<path d="M9766 5098 c3 -5 10 -6 15 -3 13 9 11 12 -6 12 -8 0 -12 -4 -9 -9z"/>
<path d="M13915 4941 c-3 -5 -2 -12 3 -15 5 -3 9 1 9 9 0 17 -3 19 -12 6z"/>
<path d="M10125 4880 c-3 -6 1 -7 9 -4 18 7 21 14 7 14 -6 0 -13 -4 -16 -10z"/>
<path d="M10375 4781 c-3 -5 -2 -12 3 -15 5 -3 9 1 9 9 0 17 -3 19 -12 6z"/>
<path d="M13515 4720 c3 -5 8 -10 11 -10 2 0 4 5 4 10 0 6 -5 10 -11 10 -5 0
-7 -4 -4 -10z"/>
<path d="M13295 4660 c-3 -5 -1 -10 4 -10 6 0 11 5 11 10 0 6 -2 10 -4 10 -3
0 -8 -4 -11 -10z"/>
<path d="M13226 4598 c3 -5 10 -6 15 -3 13 9 11 12 -6 12 -8 0 -12 -4 -9 -9z"/>
<path d="M11075 4540 c-3 -5 -1 -10 4 -10 6 0 11 5 11 10 0 6 -2 10 -4 10 -3
0 -8 -4 -11 -10z"/>
<path d="M11150 4539 c0 -5 5 -7 10 -4 6 3 10 8 10 11 0 2 -4 4 -10 4 -5 0
-10 -5 -10 -11z"/>
<path d="M12853 4529 c-2 -23 3 -25 10 -4 4 8 3 16 -1 19 -4 3 -9 -4 -9 -15z"/>
<path d="M11235 4520 c3 -5 8 -10 11 -10 2 0 4 5 4 10 0 6 -5 10 -11 10 -5 0
-7 -4 -4 -10z"/>
<path d="M11366 4502 c-3 -5 1 -9 9 -9 8 0 12 4 9 9 -3 4 -7 8 -9 8 -2 0 -6
-4 -9 -8z"/>
<path d="M11300 4486 c0 -2 8 -10 18 -17 15 -13 16 -12 3 4 -13 16 -21 21 -21
13z"/>
<path d="M12446 4482 c-3 -5 1 -9 9 -9 8 0 12 4 9 9 -3 4 -7 8 -9 8 -2 0 -6
-4 -9 -8z"/>
<path d="M12250 4465 c0 -7 30 -13 34 -7 3 4 -4 9 -15 9 -10 1 -19 0 -19 -2z"/>
<path d="M11936 4393 c-6 -14 -5 -15 5 -6 7 7 10 15 7 18 -3 3 -9 -2 -12 -12z"/>
<path d="M14345 4080 c-3 -6 1 -7 9 -4 18 7 21 14 7 14 -6 0 -13 -4 -16 -10z"/>
</g>
</svg>
